<?xml version="1.0" encoding="UTF-8" standalone="no"?>
<!-- Created with Inkscape (http://www.inkscape.org/) -->

<svg
   width="97.777153mm"
   height="49.896252mm"
   viewBox="0 0 32.921567 16.800068"
   version="1.1"
   id="svg1"
   inkscape:version="1.4.2 (ebf0e94, 2025-05-08)"
   sodipodi:docname="drawing.svg"
   xml:space="preserve"
   xmlns:inkscape="http://www.inkscape.org/namespaces/inkscape"
   xmlns:sodipodi="http://sodipodi.sourceforge.net/DTD/sodipodi-0.dtd"
   xmlns:xlink="http://www.w3.org/1999/xlink"
   xmlns="http://www.w3.org/2000/svg"
   xmlns:svg="http://www.w3.org/2000/svg"><sodipodi:namedview
     id="namedview1"
     pagecolor="#ffffff"
     bordercolor="#000000"
     borderopacity="0.25"
     inkscape:showpageshadow="2"
     inkscape:pageopacity="0.0"
     inkscape:pagecheckerboard="0"
     inkscape:deskcolor="#d1d1d1"
     inkscape:document-units="mm"
     showborder="true"
     inkscape:zoom="2"
     inkscape:cx="66.25"
     inkscape:cy="259.75"
     inkscape:window-width="2400"
     inkscape:window-height="1529"
     inkscape:window-x="-8"
     inkscape:window-y="-8"
     inkscape:window-maximized="1"
     inkscape:current-layer="layer1" /><defs
     id="defs1"><linearGradient
       id="linearGradient1"
       inkscape:collect="always"><stop
         style="stop-color:#4ea4dc;stop-opacity:1;"
         offset="0.31764707"
         id="stop1" /><stop
         style="stop-color:#d167a3;stop-opacity:1;"
         offset="0.64470589"
         id="stop2" /></linearGradient><linearGradient
       inkscape:collect="always"
       xlink:href="#linearGradient1"
       id="linearGradient2"
       x1="12.774226"
       y1="25.228006"
       x2="20.738674"
       y2="-6.7156534"
       gradientUnits="userSpaceOnUse"
       spreadMethod="repeat" /></defs><g
     inkscape:label="Layer 1"
     inkscape:groupmode="layer"
     id="layer1"
     transform="translate(-0.2956703,-0.8561377)"><path
       style="fill:url(#linearGradient2)"
       d="m 23.330751,17.632168 -0.148653,-0.02063 -0.115619,-0.04022 -0.115619,-0.04022 0.0015,-0.04866 0.0015,-0.04866 0.03831,-0.144524 0.03831,-0.144524 h 0.01275 0.01275 l 0.07955,0.0494 0.07955,0.0494 0.09906,0.03477 0.09906,0.03477 0.118493,0.009 0.118494,0.009 0.07975,-0.02005 0.07975,-0.02004 0.05383,-0.04101 0.05383,-0.04101 0.03288,-0.06445 0.03288,-0.06445 V 17.03938 16.9987 l -0.04176,-0.04963 -0.04176,-0.04963 -0.111024,-0.03469 -0.111025,-0.03469 -0.05072,-0.01605 -0.05072,-0.01605 h -0.0223 -0.0223 l -0.104868,-0.05109 -0.104869,-0.05109 -0.04318,-0.05661 -0.04318,-0.05661 -0.01061,-0.09464 -0.01061,-0.09464 0.01372,-0.08258 0.01372,-0.08259 0.0272,-0.07433 0.0272,-0.07433 0.04756,-0.0783 0.04756,-0.0783 0.06837,-0.05853 0.06838,-0.05853 0.08547,-0.04182 0.08547,-0.04182 0.09672,-0.0231 0.09672,-0.0231 0.148653,-2.63e-4 0.148653,-2.64e-4 0.132137,0.02566 0.132136,0.02566 0.06607,0.01142 0.06607,0.01142 -0.0019,0.03279 -0.0019,0.03279 -0.03632,0.140395 -0.03632,0.140395 -0.0069,0.02115 -0.0069,0.02115 -0.06238,-0.03182 -0.06238,-0.03182 -0.107249,-0.03572 -0.10725,-0.03572 -0.14555,-4.63e-4 -0.14555,-4.64e-4 -0.08656,0.04235 -0.08657,0.04235 -0.03629,0.06456 -0.03629,0.06457 v 0.04182 0.04182 l 0.0099,0.02579 0.0099,0.02579 0.05204,0.03158 0.05204,0.03158 0.177255,0.0431 0.177255,0.0431 0.0705,0.02725 0.0705,0.02725 0.0537,0.03966 0.0537,0.03965 0.02281,0.04457 0.0228,0.04457 0.01015,0.06607 0.01015,0.06607 -0.01469,0.09084 -0.01469,0.09084 -0.02382,0.08555 -0.02382,0.08555 -0.0564,0.09386 -0.0564,0.09386 -0.06858,0.06074 -0.06858,0.06074 -0.09217,0.04513 -0.09217,0.04513 -0.169596,0.02411 -0.169595,0.02411 -0.04129,-0.0017 -0.04129,-0.0017 z m -6.672583,-0.02496 -0.0047,-0.0083 0.09042,-0.355116 0.09042,-0.355116 0.06291,-0.256015 0.06291,-0.256014 0.08425,-0.325614 0.08425,-0.325614 v -0.0089 -0.0089 h 0.238121 0.238121 l 0.03466,0.152783 0.03466,0.152782 0.0157,0.06607 0.0157,0.06607 0.02761,0.123878 0.02761,0.123877 0.02005,0.08259 0.02005,0.08258 0.04788,0.227101 0.04788,0.227101 0.02477,-3.36e-4 0.02478,-3.36e-4 0.138195,-0.557106 0.138194,-0.557106 0.02556,-0.09497 0.02555,-0.09497 h 0.193328 0.193328 l -0.02131,0.08671 -0.02131,0.08671 -0.05933,0.239497 -0.05933,0.239497 -0.0083,0.03303 -0.0083,0.03303 -0.14217,0.553321 -0.14217,0.553321 -0.0082,0.03759 -0.0082,0.03759 -0.241357,-0.0046 -0.241357,-0.0046 -0.01065,-0.05781 -0.01065,-0.05781 -0.09455,-0.412926 -0.09455,-0.412926 -0.03413,-0.16517 -0.03413,-0.165171 -0.01706,-0.0113 -0.01706,-0.0113 -0.01119,0.0069 -0.01119,0.0069 -0.02857,0.128263 -0.02857,0.128262 -0.01393,0.04955 -0.01393,0.04955 -0.110342,0.429443 -0.110342,0.429443 -0.0078,0.03619 -0.0078,0.03619 -0.189827,0.0051 -0.189828,0.0051 z m 2.00652,-0.01581 v -0.01581 l 0.05871,-0.22782 0.05871,-0.22782 0.149388,-0.586355 0.149388,-0.586355 0.008,-0.04129 0.008,-0.04129 0.02468,-0.07846 0.02468,-0.07846 h 0.58614 0.586141 l -0.0082,0.0289 -0.0082,0.0289 -0.02834,0.123878 -0.02834,0.123877 -0.01179,0.01337 -0.01179,0.01336 -0.364878,0.0032 -0.364878,0.0032 -0.01804,0.01804 -0.01804,0.01804 -0.04123,0.162472 -0.04123,0.162472 0.0084,0.02182 0.0084,0.02182 h 0.349303 0.349302 l -0.01147,0.03716 -0.01147,0.03716 -0.0251,0.115619 -0.02509,0.115619 -0.01262,0.0134 -0.01262,0.0134 -0.347771,0.0031 -0.34777,0.0031 -0.0084,0.0084 -0.0084,0.0084 -0.0528,0.198104 -0.0528,0.198105 -0.0022,0.03303 -0.0022,0.03303 0.38815,0.003 0.388151,0.003 -0.0027,0.02176 -0.0027,0.02176 -0.03647,0.144524 -0.03647,0.144524 h -0.600833 -0.600834 z m 1.906516,-0.211303 0.0108,-0.227109 0.01523,-0.470735 0.01523,-0.470736 0.01146,-0.251885 0.01146,-0.251885 h 0.196133 0.196132 l -0.0095,0.268402 -0.0095,0.268402 -0.01539,0.313824 -0.01539,0.313823 -0.0046,0.107361 -0.0046,0.107361 h 0.02474 0.02474 l 0.02792,-0.05781 0.02792,-0.05781 0.0408,-0.09084 0.0408,-0.09084 0.09235,-0.195767 0.09235,-0.195767 v -0.0048 -0.0048 l 0.1045,-0.220647 0.1045,-0.220648 0.05486,-0.119748 0.05486,-0.119749 h 0.205258 0.205258 l -0.0093,0.144524 -0.0093,0.144524 -0.01704,0.404668 -0.01704,0.404667 -0.0059,0.145345 -0.0059,0.145345 0.02511,-0.0049 0.02511,-0.005 0.01359,-0.02478 0.01359,-0.02478 0.03578,-0.08258 0.03579,-0.08259 0.04556,-0.0991 0.04556,-0.0991 0.13488,-0.289048 0.134879,-0.289048 0.06057,-0.132137 0.06057,-0.132136 0.03347,-0.06428 0.03347,-0.06428 0.189524,0.0033 0.189524,0.0033 0.0035,0.0035 0.0035,0.0035 -0.02305,0.04919 -0.02305,0.04919 -0.07659,0.16517 -0.07659,0.165171 -0.06289,0.132136 -0.06289,0.132136 -0.08421,0.178979 -0.08421,0.178979 v 0.0048 0.0048 l -0.08071,0.171295 -0.08071,0.171295 -0.102572,0.22298 -0.102573,0.22298 -0.0173,0.02107 -0.0173,0.02107 -0.241249,-0.0046 -0.241248,-0.0046 0.0024,-0.04129 0.0024,-0.04129 0.01755,-0.437702 0.01755,-0.437701 0.0048,-0.231239 0.0048,-0.231238 -0.01648,-0.0083 -0.01648,-0.0083 -0.02923,0.05781 -0.02924,0.05781 -0.05958,0.132136 -0.05958,0.132137 -0.09522,0.206463 -0.09522,0.206463 -0.06131,0.132136 -0.06131,0.132136 -0.06226,0.132137 -0.06226,0.132136 -0.02878,0.06194 -0.02878,0.06194 h -0.247747 -0.247747 z m 6.616276,-2.0463 -0.206463,-0.0051 -0.305565,-0.017 -0.305565,-0.017 -0.355117,-0.02486 -0.355116,-0.02486 -0.185817,-0.01906 -0.185816,-0.01906 v -0.0078 -0.0078 l 0.05904,-0.224935 0.05904,-0.224935 0.07283,-0.262631 0.07283,-0.26263 0.0044,-0.0043 0.0044,-0.0043 0.264272,-0.01064 0.264273,-0.01064 0.256014,-0.01578 0.256014,-0.01578 0.214722,-0.02476 0.214721,-0.02476 0.13111,-0.01664 0.131109,-0.01664 0.226596,-0.04169 0.226597,-0.04169 0.228649,-0.05734 0.228649,-0.05734 0.06607,-0.02286 0.06607,-0.02286 0.09084,-0.02717 0.09084,-0.02717 0.03303,-0.0139 0.03303,-0.0139 0.07433,-0.02868 0.07433,-0.02868 0.115619,-0.05054 0.11562,-0.05054 0.04955,-0.02742 0.04955,-0.02742 0.0991,-0.05494 0.0991,-0.05494 0.123251,-0.08402 0.123252,-0.08402 0.150739,-0.148653 0.150739,-0.148654 0.07623,-0.10839 0.07624,-0.10839 0.05745,-0.122848 0.05745,-0.122849 0.03789,-0.132136 0.03789,-0.132136 3.96e-4,-0.256014 3.96e-4,-0.256015 -0.02251,-0.0991 -0.02251,-0.0991 -0.05864,-0.181687 -0.05864,-0.181688 -0.09325,-0.181687 -0.09326,-0.181688 -0.106382,-0.170327 -0.106383,-0.170327 -0.11245,-0.149704 L 29.365809,10.15387 29.178441,9.9370982 28.991073,9.7203258 28.836174,9.563414 28.681275,9.4065021 28.549347,9.2826243 28.417419,9.1587465 l -0.08229,-0.074752 -0.0823,-0.074752 -0.166571,-0.1399691 -0.166572,-0.1399691 -0.103275,-0.082585 -0.103275,-0.082585 -0.0192,-0.016593 -0.0192,-0.016593 -0.08671,-0.065257 -0.08671,-0.065257 v -0.029063 -0.029063 l 0.02293,-0.070775 0.02293,-0.070775 0.06794,-0.2477556 0.06794,-0.2477556 0.01525,-0.049551 0.01525,-0.049551 0.02847,-0.1073607 0.02847,-0.1073608 0.01148,-0.013108 0.01148,-0.013108 0.13059,0.077039 0.130591,0.077039 0.269359,0.1673078 0.26936,0.1673079 0.02795,0.016854 0.02795,0.016854 0.07433,0.047449 0.07433,0.047449 0.355117,0.2382714 0.355116,0.2382713 0.156912,0.1084035 0.156912,0.1084034 0.295502,0.2229288 0.295502,0.2229288 0.03484,0.02922 0.03484,0.02922 0.181688,0.1446024 0.181687,0.1446024 0.0991,0.08419 0.0991,0.08419 0.04955,0.045743 0.04955,0.045743 0.111472,0.094652 0.111472,0.094652 0.367522,0.3716827 0.367522,0.371682 0.175372,0.214673 0.175371,0.214672 0.111185,0.156912 0.111184,0.156912 0.103932,0.174746 0.103933,0.174746 0.07704,0.161601 0.07704,0.161602 0.05806,0.175681 0.05806,0.17568 0.01586,0.08258 0.01586,0.08259 0.01651,0.156911 0.01651,0.156912 -0.01012,0.165171 -0.01012,0.16517 -0.01611,0.06607 -0.01611,0.06607 -0.02705,0.09084 -0.02705,0.09084 -0.06081,0.118012 -0.06081,0.118013 -0.0588,0.08845 -0.0588,0.08845 -0.120797,0.12501 -0.120798,0.12501 -0.115619,0.09073 -0.115619,0.09073 -0.148654,0.09115 -0.148653,0.09114 -0.123878,0.05912 -0.123878,0.05912 -0.140394,0.0577 -0.140395,0.0577 -0.123878,0.0414 -0.123878,0.0414 -0.132136,0.04132 -0.132136,0.04132 -0.173429,0.04104 -0.173429,0.04105 -0.123878,0.02671 -0.123878,0.02671 -0.231238,0.04054 -0.231239,0.04054 -0.148653,0.01844 -0.148654,0.01844 -0.140394,0.01455 -0.140395,0.01455 -0.421185,0.03238 -0.421184,0.03238 -0.594614,0.0068 -0.594613,0.0068 z m -16.946482,-0.186875 -0.05781,-0.01196 -0.05807,-0.02497 -0.05807,-0.02497 -0.05298,-0.06034 -0.052982,-0.06034 -0.027357,-0.0941 -0.027357,-0.09411 0.00991,-0.117208 0.00991,-0.117208 0.035109,-0.114824 0.035109,-0.114824 0.051528,-0.09084 0.05153,-0.09084 0.0789,-0.07769 0.0789,-0.07769 0.07426,-0.04352 0.07425,-0.04352 0.103427,-0.03145 0.103427,-0.03145 0.158043,-1.26e-4 0.158043,-1.26e-4 0.08971,0.02653 0.08971,0.02653 0.02613,0.01385 0.02613,0.01385 -0.02829,0.112394 -0.02829,0.112395 -0.01435,-2.86e-4 -0.01435,-2.86e-4 -0.06607,-0.03464 -0.06607,-0.03463 -0.0883,-0.02079 -0.0883,-0.02079 -0.07323,0.01004 -0.07323,0.01004 -0.08272,0.03558 -0.08272,0.03559 -0.06776,0.07615 -0.06776,0.07615 -0.03988,0.08603 -0.03988,0.08603 -0.02095,0.102703 -0.02095,0.102703 0.01253,0.07929 0.01253,0.07929 0.02996,0.04055 0.02996,0.04055 0.06607,0.03798 0.06607,0.03798 0.10068,-0.0019 0.100679,-0.0019 0.03421,-0.01831 0.03421,-0.01831 0.02535,-0.07861 0.02534,-0.07861 0.01091,-0.06194 0.01091,-0.06194 h -0.09268 -0.09268 v -0.01574 -0.01574 l 0.01537,-0.03794 0.01537,-0.03794 0.0097,-0.04542 0.0097,-0.04542 h 0.222665 0.222665 v 0.0065 0.0065 l -0.06416,0.253615 -0.06416,0.253615 -0.01046,0.04532 -0.01046,0.04532 -0.06165,0.02699 -0.06165,0.02699 -0.140395,0.03064 -0.140395,0.03064 -0.10736,-0.0016 -0.107361,-0.0016 z m 4.393533,-0.0096 -0.09084,-0.02542 -0.05665,-0.04569 -0.05665,-0.04569 -0.03407,-0.06519 -0.03407,-0.06519 -0.0061,-0.129659 -0.0061,-0.129659 0.0198,-0.10158 0.0198,-0.101579 0.05018,-0.121063 0.05019,-0.121063 0.09288,-0.100596 0.09288,-0.100596 0.07253,-0.04617 0.07253,-0.04617 0.105459,-0.03509 0.105458,-0.03509 0.168866,0.0056 0.168866,0.0056 0.06607,0.03303 0.06607,0.03303 -0.0024,0.03303 -0.0024,0.03303 -0.02218,0.08671 -0.02218,0.08671 h -0.0133 -0.0133 l -0.03615,-0.03368 -0.03615,-0.03368 -0.08904,-0.02589 -0.08904,-0.02588 -0.09887,0.01945 -0.09887,0.01945 -0.06519,0.04722 -0.06519,0.04722 -0.0503,0.06309 -0.0503,0.06309 -0.03013,0.0588 -0.03013,0.0588 -0.02604,0.100496 -0.02604,0.100495 v 0.0658 0.0658 l 0.02417,0.05785 0.02417,0.05785 0.05091,0.04284 0.05091,0.04284 0.06576,0.01771 0.06576,0.01771 0.09387,-0.01735 0.09386,-0.01735 0.08083,-0.04226 0.08083,-0.04226 0.0055,0.0055 0.0055,0.0055 -0.02511,0.08223 -0.02512,0.08223 -0.01314,0.03351 -0.01314,0.03351 -0.09377,0.02956 -0.09378,0.02956 -0.143611,0.0072 -0.143612,0.0072 z m 5.838773,0.0099 -0.04955,-0.01206 -0.04955,-0.02597 -0.04955,-0.02597 -0.03523,-0.03873 -0.03523,-0.03873 -0.02937,-0.05781 -0.02938,-0.05781 9.7e-5,-0.165171 9.7e-5,-0.16517 0.02898,-0.0991 0.02898,-0.0991 0.05001,-0.107361 0.05001,-0.107361 0.117901,-0.115619 0.117902,-0.115619 0.119178,-0.04542 0.119178,-0.04542 0.16136,1.61e-4 0.16136,1.62e-4 0.08259,0.03895 0.08259,0.03895 0.03637,0.03958 0.03637,0.03957 0.02761,0.06584 0.0276,0.06584 -0.0019,0.142644 -0.0019,0.142643 -0.02638,0.105112 -0.02638,0.105112 -0.05721,0.120253 -0.05721,0.120252 -0.08759,0.08759 -0.08759,0.08759 -0.08084,0.04519 -0.08084,0.04519 -0.0991,0.02338 -0.0991,0.02338 -0.10736,-0.0014 -0.107361,-0.0014 z m 0.324242,-0.208012 0.07411,-0.02525 0.06333,-0.06146 0.06333,-0.06146 0.03905,-0.06181 0.03905,-0.06181 0.04049,-0.124047 0.04049,-0.124047 0.0073,-0.07868 0.0073,-0.07868 -0.02174,-0.06324 -0.02174,-0.06324 -0.03687,-0.03925 -0.03687,-0.03925 -0.05655,-0.01866 -0.05655,-0.01866 -0.07617,0.01918 -0.07617,0.01918 -0.06341,0.05022 -0.06341,0.05022 -0.04867,0.07074 -0.04867,0.07074 -0.04297,0.127995 -0.04297,0.127995 3.56e-4,0.112717 3.56e-4,0.112716 0.02387,0.04617 0.02387,0.04617 0.0306,0.02671 0.0306,0.02671 0.04955,0.01737 0.04955,0.01737 0.0177,0.0013 0.0177,0.0013 z m -12.9369573,0.190423 -0.00196,-0.0083 0.00342,-0.01652 0.00342,-0.01652 0.1077905,-0.421184 0.1077905,-0.421185 0.049726,-0.202333 0.049726,-0.202334 h 0.1612241 0.1612241 l 0.00805,0.04542 0.00805,0.04542 0.076858,0.346857 0.076858,0.346858 0.012559,0.04955 0.012559,0.04955 h 0.023544 0.023544 l 0.071437,-0.289048 0.071437,-0.289048 0.037975,-0.148653 0.037975,-0.148654 0.126569,-0.0048 0.1265689,-0.0048 v 0.01574 0.01574 l -0.1067057,0.418523 -0.1067057,0.418522 -0.054336,0.213752 -0.054335,0.213752 -0.1536025,-0.0012 -0.1536025,-0.0012 -0.00871,-0.0087 -0.00871,-0.0087 -0.039194,-0.179035 -0.039195,-0.179035 -0.026663,-0.11562 -0.026663,-0.115619 -0.014835,-0.06607 -0.014835,-0.06607 -0.010327,-0.0702 -0.010327,-0.0702 h -0.027477 -0.027477 l -0.097616,0.39228 -0.097616,0.392279 -0.013486,0.04955 -0.013486,0.04955 H 7.9867863 7.8625447 Z m 1.3813374,3.38e-4 -0.0064,-0.01035 0.032536,-0.123 0.032536,-0.123 0.057863,-0.231239 0.057863,-0.231238 0.024666,-0.09084 0.024667,-0.09084 0.047262,-0.189946 0.047262,-0.189946 0.1339436,-0.0048 0.1339437,-0.0048 v 0.0196 0.0196 l -0.1577108,0.619846 -0.1577108,0.619846 -0.0086,0.01392 -0.0086,0.01392 -0.1235585,-0.0032 -0.1235586,-0.0032 z m 1.9666419,0.0013 -0.0058,-0.0099 0.04047,-0.156911 0.04047,-0.156912 0.0913,-0.355117 0.0913,-0.355116 0.01496,-0.06607 0.01496,-0.06607 0.01303,-0.05781 0.01303,-0.05781 0.121706,-0.0049 0.121707,-0.0049 0.0229,0.0088 0.0229,0.0088 -0.01769,0.03304 -0.01768,0.03304 -0.0144,0.07043 -0.0144,0.07043 -0.03483,0.131176 -0.03483,0.131175 0.01383,0.01383 0.01383,0.01383 0.229928,-0.0046 0.229928,-0.0046 0.02736,-0.09084 0.02736,-0.09084 0.02895,-0.132136 0.02895,-0.132136 0.01447,-0.0289 0.01447,-0.0289 h 0.131556 0.131555 v 0.01594 0.01594 l -0.02351,0.07077 -0.02351,0.07077 -0.118281,0.478994 -0.118282,0.478994 -0.02346,0.08295 -0.02346,0.08295 -0.132058,0.0012 -0.132058,0.0012 v -0.0252 -0.0252 l 0.01577,-0.05072 0.01577,-0.05072 0.0516,-0.196425 0.0516,-0.196424 -0.01741,-0.01076 -0.01741,-0.01076 -0.224368,0.0031 -0.224367,0.0031 -0.0075,0.0075 -0.0075,0.0075 -0.06509,0.258894 -0.06509,0.258894 -0.0099,0.01601 -0.0099,0.01601 -0.123593,-0.0023 -0.123592,-0.0023 z m 1.636506,0.0038 -0.0061,-0.0061 0.08129,-0.317595 0.08129,-0.317595 0.04994,-0.194823 0.04994,-0.194823 -0.0098,-0.02558 -0.0098,-0.02558 -0.185739,0.0048 -0.185739,0.0048 0.0055,-0.02386 0.0055,-0.02386 0.02114,-0.08258 0.02114,-0.08259 0.540908,-0.0044 0.540909,-0.0044 -0.0078,0.02087 -0.0078,0.02087 -0.02199,0.08671 -0.02199,0.08671 -0.01752,0.0015 -0.01752,0.0015 -0.16517,-0.0019 -0.165171,-0.0019 -0.02025,0.01355 -0.02025,0.01355 -0.05943,0.230506 -0.05943,0.230506 -0.06528,0.264273 -0.06528,0.264272 -0.01566,0.03702 -0.01566,0.03702 -0.124052,-0.0024 -0.124052,-0.0024 z m 2.653921,-0.03017 0.0078,-0.03303 0.154327,-0.61113 0.154328,-0.611131 0.136265,-0.0048 0.136266,-0.0048 v 0.01769 0.01769 l -0.06839,0.259635 -0.0684,0.259636 -0.01417,0.06607 -0.01417,0.06607 -0.07863,0.305265 -0.07863,0.305265 -0.13725,3e-4 -0.137251,3e-4 z m 0.869826,0.01567 -1e-6,-0.01736 0.100847,-0.395564 0.100846,-0.395564 0.02454,-0.103917 0.02454,-0.103916 -0.0099,-0.02591 -0.0099,-0.02591 -0.181507,0.0062 -0.181507,0.0062 v -0.02839 -0.02839 l 0.01537,-0.03794 0.01537,-0.03794 0.0097,-0.04542 0.0097,-0.04542 h 0.527256 0.527255 l 0.007,0.01239 0.007,0.01239 -0.02671,0.09892 -0.02671,0.09892 -0.182544,-0.0054 -0.182543,-0.0054 -0.01909,0.023 -0.01909,0.023 -0.09355,0.362476 -0.09355,0.362476 -0.03641,0.15661 -0.03641,0.15661 -0.134974,3.02e-4 -0.134975,3.01e-4 z m 1.156191,0.0027 v -0.01605 l 0.016,-0.05072 0.016,-0.05072 0.04978,-0.206463 0.04978,-0.206463 -0.123582,-0.361281 -0.123581,-0.361281 v -0.01448 -0.01448 h 0.147738 0.147738 l 0.06698,0.211827 0.06698,0.211827 v 0.01941 0.01941 l 0.0289,-2.04e-4 0.02891,-2.05e-4 0.03519,-0.05348 0.03519,-0.05348 0.15042,-0.176338 0.150421,-0.176339 0.142232,-0.0053 0.142232,-0.0053 0.007,0.01142 0.007,0.01142 -0.04902,0.05465 -0.04902,0.05465 -0.161951,0.190575 -0.161951,0.190576 -0.106564,0.127027 -0.106564,0.127027 -0.05597,0.219201 -0.05597,0.219201 -0.01127,0.04808 -0.01127,0.04808 -0.135889,0.0022 -0.135889,0.0022 z m 1.733645,0.0094 -6.45e-4,-0.01129 0.127457,-0.504857 0.127457,-0.504857 -0.01117,-0.0291 -0.01117,-0.0291 -0.177583,0.0044 -0.177583,0.0044 v -0.01551 -0.01552 l 0.02183,-0.09497 0.02183,-0.09497 h 0.537545 0.537545 l -0.009,0.03716 -0.009,0.03716 -0.01622,0.06325 -0.01622,0.06325 -0.0089,0.0089 -0.0089,0.0089 -0.179873,-0.0027 -0.179873,-0.0027 -0.01766,0.02139 -0.01766,0.02139 -0.044,0.173429 -0.044,0.173429 -0.03196,0.132136 -0.03196,0.132136 -0.01659,0.05781 -0.01659,0.05781 -0.03843,0.156912 -0.03843,0.156911 -0.134788,0.003 -0.134788,0.003 z m 2.271681,-0.02608 0.0108,-0.03476 0.02211,-0.09084 0.02211,-0.09084 0.131887,-0.520287 0.131888,-0.520287 0.212268,-0.0049 0.212268,-0.0049 0.138787,0.01823 0.138787,0.01823 0.05942,0.03048 0.05942,0.03048 0.03614,0.03877 0.03614,0.03877 0.0337,0.07433 0.0337,0.07433 3.63e-4,0.110156 3.63e-4,0.110156 -0.02632,0.104566 -0.02632,0.104565 -0.0515,0.105724 -0.0515,0.105724 -0.08129,0.08894 -0.08129,0.08894 -0.134067,0.06391 -0.134067,0.06391 -0.0991,0.01173 -0.0991,0.01173 -0.253182,0.004 -0.253182,0.004 z m 0.691772,-0.24136 0.08058,-0.04088 0.05766,-0.06621 0.05766,-0.06621 0.0383,-0.08116 0.0383,-0.08116 0.02007,-0.112315 0.02007,-0.112315 -0.04035,-0.07841 -0.04035,-0.07841 -0.07624,-0.03923 -0.07624,-0.03923 -0.09702,-0.0088 -0.09702,-0.0088 -0.02199,0.0265 -0.022,0.0265 -0.03185,0.119985 -0.03185,0.119985 -0.06543,0.253615 -0.06543,0.253615 v 0.033 0.033 l 0.136265,-0.0061 0.136266,-0.0061 z m 0.538804,0.2658 v -0.01024 l 0.04129,-0.06077 0.04129,-0.06077 v -0.0073 -0.0073 l 0.175139,-0.294972 0.175139,-0.294972 0.04858,-0.08714 0.04858,-0.08715 0.111848,-0.185386 0.111848,-0.185387 0.173938,-0.0047 0.173938,-0.0047 0.01039,0.153315 0.01039,0.153316 0.0258,0.289048 0.0258,0.289048 0.01505,0.197015 0.01505,0.197015 -0.0074,0.01202 -0.0074,0.01202 -0.127995,-0.0026 -0.127995,-0.0026 -0.0083,-0.115619 -0.0083,-0.115619 H 23.42288 23.168151 l -0.06809,0.115619 -0.06809,0.115619 -0.135532,0.0017 -0.135532,0.0017 z m 0.898904,-0.521675 -0.0013,-0.06607 -0.01058,-0.198204 -0.01058,-0.198205 -5.33e-4,-0.0041 -5.33e-4,-0.0041 h -0.02529 -0.02529 l -0.01059,0.0289 -0.01059,0.0289 -0.114444,0.205234 -0.114443,0.205233 -0.01897,0.03064 -0.01898,0.03064 0.01894,0.01188 0.01894,0.01188 0.162747,-0.0083 0.162747,-0.0083 z m 0.637874,0.504728 6.93e-4,-0.02573 0.0634,-0.247751 0.0634,-0.247752 -0.01659,-0.0413 -0.01659,-0.0413 -0.103512,-0.305565 -0.103512,-0.305565 -0.01207,-0.02955 -0.01207,-0.02955 0.154798,0.0048 0.154798,0.0048 0.07433,0.227071 0.07433,0.227071 0.01952,3.9e-5 0.01952,3.8e-5 0.03377,-0.04743 0.03377,-0.04743 0.149471,-0.179683 0.149472,-0.179683 0.14826,-0.0083 0.14826,-0.0083 -3.7e-5,0.01388 -3.6e-5,0.01388 -0.07846,0.09348 -0.07846,0.09348 -0.0088,0.0083 -0.0088,0.0083 -0.218204,0.258847 -0.218203,0.258847 -0.01473,0.03874 -0.01473,0.03874 -0.0519,0.214438 -0.0519,0.214437 -0.01288,0.02346 -0.01288,0.02346 -0.127037,0.0023 -0.127038,0.0023 z m -8.546051,-2.011093 -0.0033,-0.0033 -0.230676,-0.0026 -0.230676,-0.0026 -0.165171,-0.02281 -0.16517,-0.02281 -0.165171,-0.03207 -0.16517,-0.03207 -0.148653,-0.04834 -0.148654,-0.04834 -0.132136,-0.05477 -0.132136,-0.05477 -0.153392,-0.09208 -0.153392,-0.09208 0.178168,-0.01065 0.178167,-0.01065 0.214721,-0.01032 0.214722,-0.01032 0.231238,-0.01575 0.231239,-0.01575 0.297307,-0.0179 0.297306,-0.0179 0.213894,-0.01559 0.213894,-0.01559 h 0.140255 0.140254 l 0.182656,-0.01601 0.182655,-0.01601 0.313824,-0.01797 0.313823,-0.01797 0.180356,-0.01144 0.180355,-0.01144 0.0063,-0.01914 0.0063,-0.01914 -0.0463,-0.0094 -0.0463,-0.0094 -0.256014,-0.0084 -0.256014,-0.0084 -0.239497,-0.01623 -0.239497,-0.01623 -0.305566,-0.0173 -0.305565,-0.0173 -0.396409,-0.02536 -0.396409,-0.02536 -0.280789,-0.01601 -0.28079,-0.01601 -0.289048,-0.01501 -0.289048,-0.01501 -0.28079,-0.01795 -0.28079,-0.01795 -0.100096,-0.005 -0.100097,-0.005 -0.02006,-0.0124 -0.02006,-0.0124 -0.05969,-0.11852 -0.05969,-0.118519 -0.03965,-0.105335 -0.03965,-0.105335 0.0048,-0.0039 0.0048,-0.0039 0.330341,-0.01873 0.330341,-0.01873 0.38815,-0.0244 0.388151,-0.0244 0.338599,-0.01912 0.338599,-0.01912 0.123878,-0.0062 0.123878,-0.0062 0.38815,-0.02388 0.388151,-0.02388 0.214721,-0.0097 0.214722,-0.0097 0.22298,-0.01505 0.22298,-0.01505 0.206463,-0.01189 0.206463,-0.01189 0.06607,-0.0035 0.06607,-0.0035 0.123878,-0.0036 0.123878,-0.0036 0.03155,-0.01674 0.03155,-0.01674 -0.02656,-0.01486 -0.02656,-0.01486 -0.351846,-0.01599 -0.351847,-0.01598 -0.07433,-0.0084 -0.07433,-0.0084 -0.231239,-0.01583 -0.231238,-0.01583 -0.256015,-0.0095 -0.256014,-0.0095 -0.08258,-0.0075 -0.08258,-0.0075 -0.132136,-0.0086 -0.132137,-0.0086 -0.396409,-0.02438 -0.396408,-0.02438 -0.346858,-0.01821 -0.346858,-0.01821 -0.239497,-0.01429 -0.239497,-0.01429 -0.313824,-0.01773 -0.313824,-0.01773 -0.02298,-0.0083 -0.02298,-0.0083 0.01298,-0.119371 0.01298,-0.11937 0.01,-0.09084 0.01,-0.09084 0.132137,-0.0037 0.132136,-0.0037 0.404667,-0.02545 0.404668,-0.02545 0.22298,-0.01627 0.22298,-0.01627 0.355116,-0.01685 0.355117,-0.01684 0.239497,-0.01549 0.239497,-0.01549 0.17651,-0.01048 0.176511,-0.01048 0.04094,0.07997 0.04094,0.07997 0.0654,0.0674 0.0654,0.06741 0.07762,0.03649 0.07762,0.03649 0.08362,0.01586 0.08362,0.01586 h 1.938498 1.938497 v 0.01346 0.01347 l -0.09265,0.329264 -0.09265,0.329264 -0.01325,0.04955 -0.01325,0.04955 -0.04085,0.148653 -0.04084,0.148654 -0.119377,0.421184 -0.119378,0.421185 -0.01358,0.04955 -0.01358,0.04955 -0.03403,0.132136 -0.03403,0.132137 -0.01686,0.0385 -0.01686,0.03849 -2.040958,-0.0055 -2.040958,-0.0055 z m -12.6722832,-0.03176 0.010358,-0.02699 0.018599,-0.07633 0.018599,-0.07633 0.013526,-0.02668 0.013526,-0.02668 0.2937884,-0.01144 0.2937884,-0.01144 0.4459601,-0.02334 0.44596,-0.02334 0.2973067,-0.0096 0.2973067,-0.0096 0.033034,-0.0066 0.033034,-0.0066 0.2973067,-0.0096 0.2973067,-0.0096 0.097179,-0.0088 0.097179,-0.0088 -0.00935,0.02997 -0.00935,0.02998 -0.026837,0.09084 -0.026837,0.09084 -0.019696,0.07433 -0.019696,0.07433 -1.4511721,0.0042 -1.451172,0.0042 z m 5.3117327,-0.0082 -6e-7,-0.02676 0.047225,-0.163189 0.047225,-0.163189 0.015263,-0.05781 0.015263,-0.05781 0.098553,-0.01058 0.098553,-0.01058 0.5202867,-0.01875 0.5202867,-0.01875 0.05368,-0.0086 0.05368,-0.0086 v -0.01479 -0.01479 l -0.012388,-0.0076 -0.012388,-0.0076 -0.4046674,-0.01867 -0.4046675,-0.01867 -0.082585,-0.007 -0.082585,-0.007 -0.1464496,-7.41e-4 -0.1464496,-7.4e-4 0.00819,-0.03716 0.00819,-0.03716 0.025426,-0.09084 0.025426,-0.09084 0.060154,-0.214722 0.060154,-0.214721 0.025129,-0.09084 0.025129,-0.09084 0.00544,-0.01818 0.00544,-0.01818 0.2450895,-0.01124 0.2450895,-0.01124 0.1899459,-0.0072 0.189946,-0.0072 0.2436263,-0.01047 0.2436266,-0.01048 v -0.01521 -0.01521 l -0.03982,-0.01514 -0.03982,-0.01514 -0.4763418,-0.01737 -0.4763414,-0.01737 -0.1362656,-0.0099 -0.1362655,-0.0099 v -0.0091 -0.0091 l 0.072574,-0.257791 0.072574,-0.257791 0.045161,-0.16517 0.045161,-0.16517 0.01433,-0.01812 0.01433,-0.01812 0.2181079,-0.0036 0.2181078,-0.0036 0.00988,-0.0061 0.00988,-0.0061 0.3543119,-0.01098 0.3543117,-0.01098 0.07298,-0.01074 0.07298,-0.01074 0.0064,-0.01923 0.0064,-0.01924 -0.104138,-0.0095 -0.104137,-0.0095 -0.4955111,-0.0188 -0.4955111,-0.0188 -0.038818,0.0021 -0.038818,0.0021 -0.014297,-0.0088 -0.014297,-0.0088 0.022623,-0.05306 0.022623,-0.05306 0.017665,-0.06607 0.017665,-0.06607 0.027532,-0.099103 0.027532,-0.099102 0.041335,-0.1360577 0.041335,-0.1360576 -0.072556,-0.065599 -0.072556,-0.065599 -0.012388,-6.774e-4 -0.012388,-6.774e-4 V 9.404735 9.3781923 l 0.026075,0.010006 0.026075,0.010006 0.2340683,-0.015791 0.2340683,-0.015791 0.2477555,-0.00944 0.2477561,-0.00944 0.247755,-0.00927 0.247756,-0.00927 0.01542,-0.014758 0.01542,-0.014758 -0.01126,-0.011264 -0.01126,-0.011264 -0.12803,-0.00588 -0.12803,-0.00588 L 9.9932427,9.2412355 9.5225071,9.2170582 9.2452339,9.2059623 8.9679607,9.1948665 8.8901176,9.1274374 8.8122744,9.0600083 8.5395902,8.8120707 8.266906,8.5641331 8.180345,8.4872831 8.093784,8.4104331 v -0.00744 -0.00744 l 0.2353678,-0.010616 0.2353678,-0.010616 0.3468578,-0.01553 0.3468578,-0.01553 0.3551163,-0.017655 0.3551163,-0.017655 0.1073612,-0.00776 0.107361,-0.00776 0.371633,-0.00899 0.371633,-0.00899 0.06185,-0.00938 0.06185,-0.00938 0.0083,-0.013349 0.0083,-0.013349 -0.02606,-0.01 -0.02606,-0.01 -0.134891,-0.00813 -0.13489,-0.00813 -0.22298,-0.00869 -0.22298,-0.00869 -0.140395,-0.00719 -0.140395,-0.00719 -0.2229801,-0.00965 -0.22298,-0.00965 L 9.28301,8.1262714 8.9939619,8.1108755 8.8453085,8.1018338 8.6966552,8.0927922 8.3250218,8.076798 7.9533884,8.0608039 7.8349411,8.0605837 7.7164938,8.0603635 7.5988976,7.9524455 7.4813014,7.8445276 l -0.014578,0.00901 -0.014578,0.00901 -0.027991,0.084272 -0.027991,0.084273 L 7.1792651,8.0224226 6.9623667,8.0137526 6.6320259,7.9960996 6.3016851,7.9784466 6.1365148,7.9699266 5.9713444,7.9614066 5.616228,7.9455676 5.2611117,7.9297296 4.8977369,7.9100796 4.534362,7.8904296 l -0.00469,-0.0037 -0.00469,-0.0037 0.050073,-0.1783256 0.050073,-0.1783255 0.00969,-0.00968 0.00969,-0.00968 0.08533,-0.0018 0.08533,-0.0018 0.3964089,-0.018198 0.3964089,-0.018198 0.1156193,-0.00897 0.1156193,-0.00897 0.4046674,-0.016754 0.4046675,-0.016754 0.1651703,-0.00721 0.1651704,-0.00721 0.3716334,-0.017302 0.3716334,-0.017302 0.074327,-0.00765 0.074327,-0.00765 0.3468578,-0.011217 0.3468579,-0.011217 0.049551,-0.00381 0.049551,-0.00381 0.5450623,-0.02691 0.5450622,-0.02691 0.297306,-0.016499 0.297307,-0.016499 0.449375,-0.015966 0.449375,-0.015966 0.04201,-0.010543 0.04201,-0.010543 V 7.1676276 7.1538759 L 11.318735,7.146383 11.306347,7.13889 10.893421,7.1203473 10.480495,7.1018047 10.100603,7.0847166 9.7207116,7.0676285 9.4316634,7.0525134 9.1426152,7.0373982 8.5747032,7.0117794 8.0067911,6.9861607 7.4350275,6.9535105 6.8632639,6.9208604 6.6980935,6.920442 6.5329231,6.9200236 6.4256236,6.9045182 6.3183241,6.8890127 6.1117998,6.8863887 5.9052756,6.8837647 5.5636911,6.8621197 5.2221066,6.8404747 l -0.1926565,-0.0053 -0.1926566,-0.0053 -0.00625,-0.010111 -0.00625,-0.010111 0.053142,-0.183981 0.053142,-0.1839811 0.1446202,-0.00206 0.1446201,-0.00206 0.012388,-0.00317 0.012388,-0.00317 0.2312385,-0.011807 0.2312386,-0.011807 0.2973067,-0.01546 0.2973066,-0.01546 0.1982045,-0.00956 0.1982045,-0.00956 0.3798919,-0.014946 0.3798919,-0.014945 0.6364294,-0.033868 0.6364295,-0.033868 0.420661,-0.016716 0.420661,-0.016716 0.1238778,-0.00789 0.1238778,-0.00789 0.3881505,-0.017359 0.388151,-0.017359 0.0991,-0.00782 0.0991,-0.00782 0.392625,-0.015495 0.392625,-0.015495 0.01617,-0.00999 0.01617,-0.00999 v -0.014794 -0.014794 l -0.05368,-0.00875 -0.05368,-0.00875 -0.528545,-0.018084 -0.528546,-0.018084 -0.04129,-0.00309 -0.04129,-0.00309 0.0021,-0.024504 0.0021,-0.024504 0.04482,-0.1734289 0.04482,-0.1734289 0.01411,-0.05781 0.01411,-0.05781 0.02527,-0.1073607 0.02527,-0.1073608 0.02108,-0.082585 0.02108,-0.082585 0.09084,-0.010754 0.09084,-0.010754 0.214722,-0.0027 0.214721,-0.0027 0.351178,-0.020597 0.351178,-0.020597 0.01777,-0.017765 0.01777,-0.017765 -0.01507,-0.00931 -0.01507,-0.00931 -0.378649,-0.015794 -0.378649,-0.015794 -0.03303,-0.00171 -0.03303,-0.00171 -0.206052,-0.00774 -0.206052,-0.00774 -0.0221,-0.00848 -0.0221,-0.00848 0.0082,-0.013239 0.0082,-0.013239 0.07745,-0.3048303 0.07745,-0.3048304 0.01066,-0.00422 0.01066,-0.00422 1.5482,-0.00404 1.5482,-0.00404 -10e-7,0.01984 v 0.01984 l -0.02562,0.095779 -0.02562,0.095779 -0.04656,0.1734289 -0.04656,0.1734289 -0.06966,0.2560141 -0.06966,0.2560141 -0.05444,0.206463 -0.05444,0.206463 -0.07757,0.2890482 -0.07757,0.2890481 -0.01398,0.05781 -0.01398,0.05781 -0.03263,0.1156193 -0.03263,0.1156192 -0.05934,0.2229801 -0.05934,0.22298 -0.0662,0.2477556 -0.0662,0.2477555 -0.06821,0.2560141 -0.06821,0.2560141 -0.04078,0.1486534 -0.04077,0.1486533 -0.06629,0.2477556 -0.06629,0.2477556 -0.02187,0.082585 -0.02187,0.082585 -0.04087,0.1569118 -0.04087,0.1569119 -0.02512,0.090844 -0.02513,0.090844 -0.04021,0.1486534 -0.04021,0.1486533 -0.07043,0.2642729 -0.07043,0.264273 -0.03755,0.140394 -0.03755,0.140395 -0.03333,0.123878 -0.03333,0.123878 -0.05201,0.198204 -0.05201,0.198205 -0.04026,0.148653 -0.04026,0.148653 -0.04092,0.148654 -0.04092,0.148653 -0.0927,0.346858 -0.0927,0.346858 -0.03842,0.140395 -0.03842,0.140394 -0.01135,0.06212 -0.01135,0.06212 -0.0136,0.0084 -0.0136,0.0084 -1.5784238,0.0038 -1.5784234,0.0038 z m 16.0173975,0.02254 -1.432853,-0.0042 v -0.01535 -0.01535 l 0.01772,-0.0465 0.01772,-0.0465 0.05845,-0.231238 0.05845,-0.231239 0.01595,-0.03019 0.01595,-0.03018 0.02389,0.0092 0.02389,0.0092 0.218472,-0.01594 0.218473,-0.01594 0.429443,-0.02502 0.429443,-0.02503 0.198205,-0.0082 0.198204,-0.0082 0.123878,-0.0088 0.123878,-0.0088 0.295603,-0.01509 0.295603,-0.01509 0.01587,-0.01586 0.01586,-0.01586 -0.03068,-0.01606 -0.03068,-0.01606 -0.140395,-0.002 -0.140395,-0.002 -0.123877,-0.008 -0.123878,-0.008 -0.206463,-0.0089 -0.206463,-0.0089 -0.256014,-0.01701 -0.256014,-0.01701 -0.305566,-0.01649 -0.305565,-0.01649 -0.203988,-0.0094 -0.203989,-0.0094 0.0098,-0.04337 0.0098,-0.04337 0.04177,-0.148653 0.04177,-0.148653 0.02586,-0.09084 0.02586,-0.09084 0.01564,-0.06408 0.01564,-0.06408 0.01722,-0.03218 0.01722,-0.03218 0.02371,0.0091 0.02371,0.0091 0.410604,-0.02411 0.410604,-0.02411 0.270521,-0.01616 0.270521,-0.01616 0.22298,-0.0089 0.22298,-0.0089 0.132136,-0.0084 0.132137,-0.0084 0.183513,-0.0078 0.183514,-0.0078 0.02708,-0.01039 0.02708,-0.01039 v -0.01527 -0.01527 l -0.02065,-0.0065 -0.02065,-0.0065 -0.156912,-0.01029 -0.156912,-0.01029 -0.363375,-0.01506 -0.363375,-0.01506 -0.272531,-0.01858 -0.272531,-0.01858 -0.132136,-0.005 -0.132137,-0.005 -0.267359,-0.0127 -0.267359,-0.0127 -0.02063,-0.01275 -0.02063,-0.01275 0.02025,-0.07971 0.02025,-0.07971 0.01403,-0.04955 0.01403,-0.04955 0.05232,-0.19548 0.05232,-0.195479 0.01382,-0.03635 0.01382,-0.03635 0.52617,-0.03031 0.526169,-0.03031 0.247755,-0.01356 0.247756,-0.01357 0.462477,-0.01862 0.462477,-0.01862 0.03716,-0.01501 0.03716,-0.01501 v -0.01519 -0.0152 l -0.11149,-0.01057 -0.11149,-0.01057 -0.371634,-0.0169 -0.371633,-0.0169 -0.0991,-0.007 -0.0991,-0.007 -0.429443,-0.02456 -0.429443,-0.02456 -0.204234,-0.009 -0.204235,-0.00895 -0.01574,-0.00973 -0.01574,-0.00973 0.01095,-0.027234 0.01095,-0.027234 0.04109,-0.1569119 0.04109,-0.1569118 0.02459,-0.090844 0.02459,-0.090844 0.01724,-0.074327 0.01724,-0.074327 0.01663,-0.020646 0.01663,-0.020646 h 0.149826 0.149826 l 0.223915,-0.016274 0.223914,-0.016274 0.421184,-0.02456 0.421185,-0.02456 0.429443,-0.01922 0.429443,-0.01922 0.02135,-0.016876 0.02135,-0.016876 -0.01435,-0.014351 -0.01435,-0.014351 -0.304302,-0.01417 -0.304303,-0.01417 -0.01147,0.00676 -0.01147,0.00676 -0.186735,-0.016504 -0.186734,-0.016504 -0.421185,-0.024618 -0.421184,-0.024618 -0.206463,-0.01132 -0.206463,-0.01132 -0.06607,-0.00165 -0.06607,-0.00165 0.0031,-0.017462 0.0031,-0.017462 0.03312,-0.1229327 0.03312,-0.1229327 0.05878,-0.2110701 0.05878,-0.2110702 v -0.024298 -0.024298 l 0.01239,-2.458e-4 0.01239,-2.459e-4 0.173429,-0.00805 0.173429,-0.00805 0.247755,-0.016849 0.247756,-0.016849 0.189946,-0.00874 0.189946,-0.00874 0.289048,-0.014012 0.289048,-0.014013 0.313824,-0.019716 0.313823,-0.019716 0.01416,-0.013442 0.01416,-0.013442 -0.03068,-0.015786 -0.03068,-0.015786 -0.264272,-0.010897 -0.264273,-0.010897 -0.16517,-0.00856 -0.165171,-0.00856 -0.256014,-0.015853 -0.256014,-0.015853 -0.462477,-0.025998 -0.462477,-0.025998 -0.01318,-0.012767 -0.01318,-0.012767 0.01646,-0.039676 0.01645,-0.039676 0.0786,-0.3029503 0.07859,-0.3029502 0.01723,-0.021422 0.01723,-0.021422 0.388151,-0.019628 0.38815,-0.019628 0.07433,-0.00594 0.07433,-0.00594 0.206463,-0.00995 0.206463,-0.00995 0.280789,-0.015398 0.28079,-0.015398 0.214721,-0.00977 0.214722,-0.00977 0.03716,-0.00753 0.03716,-0.00753 v -0.024461 -0.024461 l -0.152783,-0.00322 -0.152783,-0.00322 -0.04129,-0.00248 -0.04129,-0.00248 -0.148653,-0.01088 -0.148653,-0.01088 -0.173429,-0.00808 -0.173429,-0.00808 -0.264273,-0.017072 -0.264273,-0.017072 -0.233657,-0.01608 -0.233658,-0.01608 h -0.147611 -0.14761 l -0.0087,-0.00866 -0.0087,-0.00866 0.05622,-0.1915329 0.05622,-0.1915329 -0.0092,-0.00919 -0.0092,-0.00919 -1.172534,-0.00121 -1.172534,-0.00121 -1.1e-5,-0.025907 -10e-6,-0.025907 0.02469,-0.083125 0.02469,-0.083125 0.326302,-0.011281 0.326301,-0.011281 0.214722,-0.014904 0.214721,-0.014904 0.330341,-0.017074 0.330341,-0.017074 0.33034,-0.017452 0.330341,-0.017452 0.379892,-0.025154 0.379892,-0.025154 0.330341,-0.015162 0.33034,-0.015162 0.173429,-0.0095 0.173429,-0.0095 0.301809,-0.012883 0.301809,-0.012883 0.01883,-0.018834 0.01883,-0.018834 -0.04276,-0.016256 -0.04276,-0.016256 -0.410022,-0.017837 -0.410021,-0.017837 -0.520287,-0.032369 -0.520287,-0.032369 -0.346858,-0.016547 -0.346857,-0.016547 -0.264273,-0.016369 -0.264273,-0.016369 -0.140395,-0.0089 -0.140394,-0.0089 -0.360975,-0.01631 -0.360975,-0.01631 -0.01066,-0.00612 -0.01066,-0.00612 -0.231239,-0.01174 -0.231238,-0.01174 -0.0053,-0.00522 -0.0053,-0.00522 0.0162,-0.030513 0.0162,-0.030513 0.05629,-0.206463 0.05628,-0.206463 0.197062,-0.011343 0.197061,-0.011343 0.404668,-0.025466 0.404667,-0.025466 0.330341,-0.016705 0.330341,-0.016704 0.313823,-0.017327 0.313824,-0.017327 0.247756,-0.016024 0.247755,-0.016024 0.247756,-0.00779 0.247755,-0.00779 0.181688,-0.016444 0.181687,-0.016444 0.396409,-0.017664 0.396409,-0.017664 0.06194,-0.00896 0.06194,-0.00896 v -0.021841 -0.021841 l -0.136266,-0.00935 -0.136265,-0.00935 -0.247756,-0.00865 -0.247755,-0.00865 -0.363375,-0.024916 -0.363375,-0.024916 -0.338599,-0.016227 -0.3386,-0.016227 -0.07433,-0.00771 -0.07433,-0.00771 -0.363375,-0.017337 -0.363375,-0.017337 -0.09084,-0.00914 -0.09084,-0.00914 -0.322083,-0.014286 -0.322082,-0.014286 -0.107361,-0.00811 -0.10736,-0.00811 -0.257759,-0.011531 -0.257759,-0.011531 0.03056,-0.1163905 0.03056,-0.1163906 0.0057,-0.0057 0.0057,-0.0057 3.863506,3.85e-4 3.863506,3.849e-4 -0.0059,0.020366 -0.0059,0.020366 -0.03004,0.1073607 -0.03004,0.1073608 -0.03338,0.1238778 -0.03338,0.1238778 -0.05125,0.1816874 -0.05125,0.1816874 -0.03338,0.1238778 -0.03338,0.1238778 -0.0334,0.1156193 -0.0334,0.1156192 -0.01364,0.05781 -0.01364,0.05781 -0.02724,0.090844 -0.02723,0.090844 -0.0168,0.05781 -0.0168,0.05781 -0.02205,0.090844 -0.02205,0.090844 -0.02194,0.069484 -0.02195,0.069484 -1.241534,0.00484 -1.241535,0.00484 -0.01044,0.010442 -0.01044,0.010442 -0.04642,0.1795037 -0.04642,0.1795038 -0.07057,0.2642726 -0.07057,0.2642726 -0.03756,0.1403948 -0.03755,0.1403948 -0.03669,0.1321363 -0.03669,0.1321364 -0.0128,0.05781 -0.0128,0.05781 -0.04337,0.1569119 -0.04337,0.1569119 -0.03984,0.1486533 -0.03984,0.1486533 -0.02672,0.099102 -0.02673,0.099102 -0.03208,0.1197485 -0.03208,0.1197486 -0.03187,0.1197485 -0.03187,0.1197485 -0.04146,0.1569119 -0.04146,0.1569119 -0.02663,0.099102 -0.02663,0.099102 -0.04123,0.1569119 -0.04123,0.1569124 -0.01754,0.06607 -0.01754,0.06607 -0.01349,0.03303 -0.01349,0.03303 -0.04263,0.173429 -0.04263,0.173429 -0.03338,0.123878 -0.03337,0.123877 -0.04797,0.181688 -0.04797,0.181687 -0.02688,0.0991 -0.02688,0.0991 -0.03944,0.148653 -0.03944,0.148653 -0.02741,0.0991 -0.02741,0.0991 -0.01284,0.04955 -0.01284,0.04955 -0.04458,0.165171 -0.04458,0.16517 -0.08079,0.305565 -0.08079,0.305565 -0.01738,0.06125 -0.01738,0.06125 -0.01193,0.0048 -0.01193,0.0048 z m -18.5459356,-0.803792 -0.00694,-0.0069 -0.4293887,-0.01853 -0.4293888,-0.01853 -0.1403948,-0.0068 -0.1403949,-0.0068 -0.4789941,-0.02505 -0.4789941,-0.02505 -0.2118429,-0.01135 -0.2118429,-0.01135 0.00871,-0.02632 0.00871,-0.02632 0.04057,-0.145128 0.04057,-0.145129 0.019909,-0.02399 0.019909,-0.02399 0.012927,0.008 0.012927,0.008 0.4765833,-0.02458 0.4765833,-0.02458 0.3055652,-0.01641 0.3055652,-0.01641 0.6111305,-0.02501 0.6111304,-0.02501 0.045422,-0.0096 0.045422,-0.0096 v 0.01632 0.01632 l -0.05879,0.203842 -0.05879,0.203841 -0.032754,0.11149 -0.032753,0.11149 H 6.0312068 5.8694887 Z m 0.3069958,-1.066536 -0.2147215,-0.01198 -0.2147215,-0.01082 -0.2147215,-0.01082 -0.1899459,-0.0087 -0.189946,-0.0087 -0.33447,-0.0159 -0.33447,-0.0159 -0.3344701,-0.01694 -0.33447,-0.01694 -0.086714,-0.0025 -0.086714,-0.0025 v -0.01302 -0.01302 l 0.022768,-0.07078 0.022768,-0.07077 0.030022,-0.1091 0.030022,-0.109099 0.2981976,-0.01109 0.2981975,-0.01109 0.2560141,-0.01579 0.2560141,-0.01579 0.3633749,-0.01734 0.3633748,-0.01734 0.2147215,-0.0079 0.2147216,-0.0079 0.3273589,-0.01792 0.327359,-0.01792 0.00864,0.0086 0.00864,0.0086 -0.089958,0.319179 -0.089958,0.319179 -0.056092,0.0019 -0.056092,0.0019 z m 0.5676411,-1.048411 -0.00884,-0.0088 -0.3950176,-0.01657 -0.3950176,-0.01657 -0.44596,-0.0237 -0.4459601,-0.0237 -0.1816874,-0.0093 -0.1816874,-0.0093 -0.3530234,-0.01617 -0.3530234,-0.01617 -0.013339,0.0082 -0.013339,0.0082 -0.00916,-0.01482 -0.00916,-0.01482 0.03471,-0.1217172 L 4.0013944,9.769876 4.0212484,9.704561 4.0411024,9.639246 4.1721132,9.634916 4.303124,9.630586 4.6417233,9.613485 4.9803226,9.596384 5.3024048,9.579699 5.6244871,9.563014 6.0539301,9.546678 6.4833731,9.530341 6.7304754,9.514563 6.9775777,9.498785 l 0.00317,0.00341 0.00317,0.00341 -0.057849,0.206463 -0.057849,0.206463 -0.036092,0.123763 -0.036092,0.123763 -0.025003,0.0048 -0.025003,0.0048 z m 9.2835327,-0.09815 -0.0073,-0.0073 -0.288909,-0.01847 -0.28891,-0.01847 L 15.121779,10.0091 14.807955,9.99376 14.692336,9.98494 14.576717,9.97612 14.205084,9.951122 13.83345,9.926124 13.480668,9.91089 13.127886,9.895656 l -0.0078,-0.0078 -0.0078,-0.0078 0.01576,-0.03032 0.01575,-0.030319 0.04412,-0.1727781 0.04412,-0.1727781 0.0034,-0.00246 0.0034,-0.00246 0.454218,-0.02664 0.454219,-0.02664 0.470736,-0.025872 0.470735,-0.025872 0.231239,-0.01555 0.231238,-0.01555 0.322082,-0.017708 0.322083,-0.017708 0.04783,-0.00923 0.04783,-0.00923 -0.0088,0.030746 -0.0088,0.030746 -0.09452,0.2890481 -0.09452,0.2890482 -0.01703,0.066068 -0.01703,0.066069 -0.01121,0.01266 -0.01121,0.01266 z M 6.7971957,9.083662 6.5659572,9.0714161 6.1612897,9.0527721 5.7566223,9.0341282 5.4097645,9.0176255 5.0629066,9.0011229 4.7738585,8.9844612 4.4848103,8.9677996 l -0.1238778,-0.0054 -0.1238778,-0.0054 0.00303,-0.031258 0.00303,-0.031258 0.040692,-0.1483852 0.040692,-0.1483852 0.022347,-0.011687 0.022347,-0.011687 0.7350082,-0.036323 0.7350083,-0.036323 0.3385993,-0.013109 0.3385993,-0.013109 0.3603924,-0.017339 0.3603924,-0.017339 0.014229,-0.00879 0.014229,-0.00879 0.00892,0.01443 0.00892,0.01443 -0.067255,0.2294656 -0.067255,0.2294656 -0.015413,0.064078 -0.015413,0.064078 -0.016534,0.030895 -0.016534,0.030895 -0.028324,-0.00251 -0.028324,-0.00251 z M 16.046737,8.983944 15.898084,8.97066 15.518192,8.952074 15.1383,8.933488 15.07223,8.927308 15.00616,8.921128 14.717112,8.903511 14.428064,8.885894 14.180308,8.869932 13.932552,8.85397 13.759124,8.84119 13.585695,8.82841 h -0.08672 -0.08672 l 3e-6,-0.020221 4e-6,-0.020221 0.04942,-0.1929956 0.04942,-0.1929955 0.0043,-0.00373 0.0043,-0.00373 0.206463,-0.010055 0.206463,-0.010055 0.289049,-0.015635 0.289048,-0.015635 0.289048,-0.01713 0.289048,-0.01713 0.107361,-0.00845 0.107361,-0.00845 0.487252,-0.025746 0.487253,-0.025746 0.173429,-0.012886 0.173429,-0.012886 0.006,0.00455 0.006,0.00455 -0.12754,0.389017 -0.127541,0.3890171 -0.0932,-0.0023 -0.0932,-0.0023 z M 16.451405,7.927334 16.277976,7.914912 15.955894,7.89655 15.633811,7.878188 15.567741,7.871768 15.501671,7.865348 15.278691,7.854642 15.055711,7.843936 14.824473,7.828272 14.593234,7.812608 14.254635,7.796257 13.916035,7.779906 13.795424,7.769122 13.674813,7.758338 l 0.01024,-0.026548 0.01024,-0.026548 0.04735,-0.1792299 0.04735,-0.17923 0.0092,-0.00923 0.0092,-0.00923 0.136379,-0.00524 0.13638,-0.00524 0.264272,-0.016317 0.264273,-0.016317 0.545062,-0.03307 0.545063,-0.03307 0.355116,-0.019042 0.355116,-0.019042 0.28079,-0.020466 0.28079,-0.020466 0.0066,0.00561 0.0066,0.00561 -0.0356,0.111813 -0.03559,0.111813 -0.09425,0.2849189 -0.09425,0.2849189 -0.05014,-0.00249 -0.05014,-0.00249 z M 3.9314895,7.6785643 3.7250265,7.5306988 3.4855294,7.3540893 3.2460324,7.1774797 3.1221546,7.0801746 2.9982768,6.9828695 2.9422701,6.9393909 2.8862633,6.8959123 2.5623782,6.62382 2.238493,6.3517277 1.8745908,5.987914 1.5106885,5.6241003 1.4358787,5.5415151 1.361069,5.4589299 1.2432723,5.3144594 1.1254756,5.1699888 0.97946925,4.9676016 0.83346293,4.7652143 0.78226278,4.6826291 0.73106262,4.6000439 0.64653811,4.4451373 0.5620136,4.2902306 V 4.2789286 4.2676266 L 0.52325414,4.1860799 0.48449469,4.1045328 0.44124248,3.980655 0.39799027,3.8567772 0.36452307,3.7163824 0.33105587,3.5759875 0.31336309,3.3999431 0.2956703,3.2238986 0.32165198,3.024188 l 0.0259817,-0.1997105 0.049455,-0.1355099 0.049455,-0.1355098 0.057735,-0.09692 0.057735,-0.09692 v -0.00891 -0.00891 l 0.0689737,-0.084877 0.0689737,-0.084877 0.0920675,-0.09643 0.0920674,-0.09643 0.11561927,-0.086386 0.11561925,-0.086386 0.1016266,-0.068101 0.1016266,-0.068101 0.1543875,-0.080625 0.1543875,-0.080625 0.1403948,-0.059399 0.1403949,-0.059399 0.2064629,-0.068404 0.206463,-0.068404 0.189946,-0.050549 0.1899459,-0.050549 0.189946,-0.040478 L 3.0808621,1.0713008 3.2212569,1.0470478 3.3616518,1.0227948 3.5185636,0.9981183 3.6754755,0.9734419 3.9314896,0.9488138 4.1875037,0.9241857 4.3691911,0.9078524 4.5508785,0.8915191 4.8647023,0.8758064 5.178526,0.8600937 l 0.3798919,-0.001978 0.3798919,-0.001978 0.4211845,0.0101576 0.4211845,0.0101576 0.3551163,0.024148 0.3551163,0.024148 0.2394971,0.0166584 0.2394971,0.0166584 0.2725311,0.0252996 0.2725311,0.0252996 0.1010066,0.01598 0.1010066,0.01598 0.064164,-6.83e-5 0.064164,-6.83e-5 0.3633749,0.049795 0.3633748,0.049796 0.2394971,0.033783 0.2394972,0.033783 0.264273,0.039646 0.264273,0.039646 0.148653,0.026794 0.148653,0.026794 0.140395,0.022504 0.140395,0.022504 0.06607,0.010759 0.06607,0.010759 0.256014,0.049474 0.256014,0.049474 0.123878,0.022179 0.123878,0.022179 0.123878,0.024761 0.123878,0.024761 0.247755,0.052752 0.247756,0.052752 0.06607,0.01263 0.06607,0.01263 0.189946,0.04198 0.189946,0.04198 0.107361,0.024078 0.10736,0.024078 0.264273,0.061001 0.264273,0.061001 0.04955,0.014908 0.04955,0.014908 0.214721,0.050735 0.214722,0.050735 0.0991,0.025244 0.0991,0.025244 0.189946,0.049469 0.189946,0.049469 0.04955,0.013397 0.04955,0.013397 0.198204,0.053144 0.198204,0.053144 0.11562,0.031645 0.115619,0.031645 0.115619,0.030949 0.11562,0.030949 0.206463,0.059445 0.206463,0.059445 0.09084,0.026493 0.09084,0.026493 0.05781,0.017396 0.05781,0.017396 0.06607,0.020759 0.06607,0.020759 0.0991,0.027528 0.0991,0.027528 0.03303,0.013603 0.03303,0.013603 0.0991,0.028394 0.0991,0.028394 0.132136,0.040509 0.132136,0.040509 0.04129,0.013742 0.04129,0.013742 0.165171,0.051872 0.16517,0.051872 0.478994,0.1567229 0.478994,0.1567229 0.03303,0.015197 0.03303,0.015197 0.10736,0.032631 0.107361,0.032631 0.214722,0.076697 0.214721,0.076697 0.156912,0.05555 0.156912,0.05555 0.140395,0.052094 0.140394,0.052094 0.08259,0.024805 0.08258,0.024804 0.01569,0.015018 0.01569,0.015017 H 19.621325 18.68845 L 18.317342,3.8582152 17.946197,3.7357754 17.591081,3.626311 17.235964,3.5168465 17.120345,3.4823836 17.004726,3.4479206 16.872589,3.4072084 16.740453,3.3664961 16.657868,3.3435072 16.575283,3.3205184 16.360561,3.2617812 16.14584,3.203044 16.026091,3.170665 15.906343,3.138286 15.778336,3.1039939 15.650328,3.0697017 15.19611,2.9564068 14.741891,2.8431119 14.593238,2.80877 14.444585,2.774428 14.374385,2.758152 14.304185,2.741877 14.233985,2.725014 14.163785,2.708151 14.089455,2.693916 14.015125,2.679681 13.849954,2.644554 13.684784,2.609427 13.569165,2.585753 13.453545,2.562079 13.230565,2.519551 13.007585,2.477023 12.925005,2.460431 12.842425,2.443839 12.751585,2.429626 12.660745,2.415413 12.462541,2.380922 12.264337,2.346431 12.008322,2.305407 11.752308,2.264383 11.611913,2.246033 11.471519,2.227682 11.364158,2.21201 11.256797,2.196338 11.058593,2.172265 10.860388,2.148192 10.637408,2.12213 10.414428,2.096068 10.216224,2.079458 10.018019,2.062848 9.8198148,2.048858 9.6216103,2.034868 9.3408207,2.012846 9.060031,1.990824 l -0.8175934,-6.08e-5 -0.8175934,-6.07e-5 -0.2147215,0.021104 -0.2147215,0.021104 -0.1569119,0.00878 -0.1569119,0.00878 -0.024775,0.00871 -0.024776,0.00871 -0.074327,0.00726 -0.074327,0.00726 -0.1734289,0.024991 -0.1734289,0.024991 -0.074327,0.015788 -0.074327,0.015788 -0.1729903,0.033911 -0.1729902,0.033911 -0.1573505,0.04138 -0.1573505,0.04138 -0.1486534,0.047253 -0.1486533,0.047253 -0.1403949,0.051642 -0.1403948,0.051642 -0.1899459,0.092401 -0.189946,0.092401 -0.1156193,0.075042 -0.1156192,0.075042 -0.1073608,0.083524 -0.1073607,0.083524 -0.097097,0.099178 -0.097098,0.099178 -0.081958,0.1156192 -0.081958,0.1156193 -0.045841,0.090844 -0.045841,0.090844 -0.033698,0.099102 -0.033698,0.099102 -0.022178,0.090844 -0.022178,0.090844 -1.73e-5,0.2147215 -1.73e-5,0.2147215 0.022336,0.1073608 0.022336,0.1073607 0.066102,0.1982045 0.066102,0.1982044 0.083938,0.1651704 0.083938,0.1651704 0.091055,0.1486534 0.091055,0.1486533 0.058364,0.082585 0.058365,0.082585 0.1345302,0.1734289 0.1345302,0.1734289 0.039186,0.042399 0.039186,0.042399 0.096122,0.1101018 0.096122,0.1101017 -0.012296,0.019895 -0.012296,0.019895 -0.023187,0.091877 -0.023187,0.091877 -0.024549,0.090844 -0.024549,0.090844 -0.013669,0.049551 -0.013669,0.049551 -0.025881,0.090844 -0.025881,0.090844 -0.040405,0.1486534 -0.040405,0.1486533 -0.036451,0.1321363 -0.036451,0.1321363 -0.011428,0.040216 -0.011428,0.040216 -0.015617,0.00386 -0.015617,0.00386 z M 16.707419,6.8630522 16.443146,6.8428572 16.08803,6.823145 15.732914,6.8034327 15.468641,6.7884937 15.204368,6.7735546 14.898803,6.756196 14.593238,6.738837 14.428068,6.722308 14.262897,6.705779 l -0.144524,9.39e-5 -0.144524,9.38e-5 V 6.6915422 6.677118 l 0.05937,-0.1961681 0.05937,-0.1961681 0.0138,-0.016807 0.01379,-0.016807 0.220014,-0.00411 0.220015,-0.00411 0.140395,-0.015728 0.140395,-0.015728 0.346857,-0.017673 0.346858,-0.017673 0.454219,-0.023505 0.454218,-0.023505 0.132137,-0.00886 0.132136,-0.00886 0.247756,-0.016032 0.247755,-0.016032 0.239497,-0.00856 0.239497,-0.00856 0.330341,-0.024383 0.330341,-0.024383 0.379892,-0.018641 0.379892,-0.018641 0.01638,-0.015684 0.01638,-0.015684 -0.02464,-0.015576 -0.02464,-0.015576 -0.140395,-4.233e-4 -0.140395,-4.234e-4 -0.189946,-0.016075 -0.189946,-0.016075 -0.297307,-0.018294 -0.297306,-0.018295 -0.148654,-0.00702 -0.148653,-0.00702 -0.28079,-0.016983 -0.280789,-0.016983 -0.264273,-0.016131 -0.264273,-0.016131 -0.04651,-0.00657 -0.04651,-0.00657 -0.250793,-0.00986 -0.250793,-0.00986 -0.272531,-0.017718 -0.272531,-0.017718 -0.45004,-0.027438 -0.450039,-0.027438 0.06834,-0.099102 0.06834,-0.099102 0.07863,-0.099102 0.07863,-0.099102 0.04019,-0.037471 0.04019,-0.037471 0.15552,-0.0078 0.15552,-0.0078 0.247756,-0.016692 0.247755,-0.016692 0.214722,-0.00864 0.214721,-0.00864 0.22298,-0.01592 0.22298,-0.01592 0.611131,-0.033625 0.61113,-0.033625 0.28079,-0.016568 0.28079,-0.016568 0.376872,-0.024318 0.376872,-0.024318 h 0.146469 0.146468 l 0.04506,-0.017131 0.04506,-0.017131 -0.01754,-0.017537 -0.01754,-0.017537 -0.07187,-0.00591 -0.07187,-0.00591 -0.206463,-0.00825 -0.206463,-0.00825 -0.437702,-0.025449 -0.437701,-0.025449 -0.28079,-0.01725 -0.28079,-0.01725 -0.231238,-0.015853 -0.231239,-0.015853 -0.478994,-0.025033 -0.478994,-0.025033 -0.214721,-0.015628 -0.214722,-0.015628 -0.05698,-6.137e-4 -0.05698,-6.136e-4 0.01569,-0.015038 0.01569,-0.015038 0.1701,-0.085079 0.1701,-0.085079 0.0694,-0.025356 0.0694,-0.025356 0.123878,-0.035184 0.123878,-0.035184 3.077877,-0.00864 3.077877,-0.00864 0.0053,0.00852 0.0053,0.00852 -0.02204,0.082324 -0.02204,0.082324 -0.05948,0.1982045 -0.05948,0.1982044 -0.0264,0.090844 -0.0264,0.090844 -0.02986,0.099102 -0.02986,0.099102 -0.05046,0.1651704 -0.05046,0.1651704 -0.03466,0.1238778 -0.03466,0.1238778 -0.02235,0.074327 -0.02235,0.074327 -0.04078,0.1403948 -0.04078,0.1403949 -0.02232,0.066068 -0.02231,0.066068 -2.204949,0.00257 -2.204948,0.00257 -0.04594,0.00156 -0.04594,0.00156 -0.0061,0.020646 -0.0061,0.020646 -0.05219,0.1899459 -0.05219,0.189946 -0.01515,0.037163 -0.01515,0.037163 -0.03752,-0.0022 -0.03752,-0.0022 z M 9.8776234,5.9934487 9.6876775,5.9829053 9.3243026,5.9642154 8.9609278,5.9455254 8.7792404,5.9374321 8.5975529,5.9293389 8.2259196,5.9136246 7.8542862,5.8979103 7.7634425,5.8886508 7.6725988,5.8793913 7.2761898,5.8634216 6.8797809,5.847452 6.5329231,5.8312222 6.1860653,5.8149925 5.8805001,5.798133 5.5749348,5.7812736 l -0.2204512,-0.00724 -0.2204513,-0.00724 -0.00587,-0.00587 -0.00587,-0.00587 0.04026,-0.1563279 0.04026,-0.1563278 0.016404,-0.037163 0.016404,-0.037163 0.1861708,-2.555e-4 0.1861708,-2.556e-4 0.2394971,-0.015883 0.239497,-0.015882 0.4046675,-0.017891 0.4046674,-0.017891 0.1073608,-0.00693 0.1073607,-0.00693 0.3716334,-0.016809 0.3716334,-0.016809 0.3551163,-0.015939 0.3551164,-0.015939 0.090844,-0.00837 0.090844,-0.00837 0.3087617,-0.011049 0.3087617,-0.011049 0.2829838,0.2706859 0.2829838,0.270686 0.1391341,0.1327943 0.139133,0.1327943 v 0.010468 0.010468 l -0.0702,-0.00287 -0.0702,-0.00287 z M 8.9857033,4.8715307 8.9444107,4.8593508 8.7627233,4.8575411 8.5810359,4.8557313 8.3497974,4.8397286 8.1185588,4.8237258 7.7221499,4.8058538 7.3257409,4.7879818 6.9954002,4.7736754 6.6650594,4.7593691 6.1695482,4.7334717 5.6740371,4.7075743 5.5539954,4.7016906 5.4339537,4.695807 l -0.00919,-0.00919 -0.00919,-0.00919 0.044341,-0.1543115 0.04434,-0.1543114 0.014985,-0.041293 0.014985,-0.041293 1.4473525,0.00412 1.4473526,0.00412 0.084311,0.077862 0.084311,0.077862 0.2216564,0.2111454 0.2216564,0.2111454 -0.00693,0.00562 -0.00693,0.00562 z"
       id="path1" /></g></svg>
